<svg width="270" height="69" viewBox="0 0 270 69" fill="none" xmlns="http://www.w3.org/2000/svg">
<g clip-path="url(#clip0)">
<path d="M107.187 0V2.23112H94.4522V36.8226H89.36V2.23112H84.2678C82.0045 2.23112 80.2577 2.74319 79.0271 3.7673C77.8028 4.79142 77.1906 6.41904 77.1906 8.65015H76.059V4.46224C76.059 3.90751 76.1239 3.35887 76.2537 2.81633C76.3898 2.27989 76.6371 1.80745 76.9958 1.39902C77.3544 0.99059 77.8429 0.655321 78.4613 0.393196C79.0859 0.13107 79.8897 0 80.8729 0H107.187ZM117.882 33.4759C118.748 33.8843 119.644 34.2653 120.572 34.6189C121.493 34.9724 122.387 35.1492 123.253 35.1492C124.539 35.1492 125.624 34.8505 126.508 34.2531C127.399 33.6618 128.125 32.8541 128.688 31.83C129.257 30.8059 129.671 29.5958 129.931 28.1999C130.197 26.81 130.33 25.3134 130.33 23.7102C130.33 22.1131 130.206 20.6165 129.959 19.2205C129.718 17.8245 129.322 16.6175 128.772 15.5995C128.227 14.5754 127.55 13.7647 126.74 13.1673C125.924 12.5759 124.95 12.2803 123.818 12.2803C123.027 12.2803 122.331 12.3717 121.731 12.5546C121.125 12.7436 120.587 12.9935 120.118 13.3044C119.648 13.6214 119.224 13.9841 118.847 14.3925C118.47 14.801 118.148 15.2124 117.882 15.627V33.4759ZM112.79 17.3003C112.79 15.6239 112.552 14.2737 112.076 13.2495C111.606 12.2315 110.524 11.7225 108.829 11.7225H107.698V10.5978H112.79C114.224 10.5978 115.31 10.8051 116.046 11.2196C116.781 11.628 117.298 12.259 117.595 13.1124H117.882C118.445 12.4053 119.332 11.7164 120.544 11.0459C121.75 10.3753 123.407 10.04 125.516 10.04C127.216 10.04 128.697 10.4027 129.959 11.1281C131.226 11.8536 132.284 12.832 133.131 14.0634C133.978 15.2886 134.621 16.7303 135.06 18.3884C135.493 20.0404 135.71 21.8144 135.71 23.7102C135.71 25.606 135.493 27.383 135.06 29.0411C134.621 30.6931 133.96 32.1348 133.075 33.3662C132.191 34.5914 131.078 35.5668 129.736 36.2922C128.394 37.0176 126.799 37.3803 124.95 37.3803C123.367 37.3803 122.01 37.2036 120.878 36.85C119.746 36.4964 118.748 36.1154 117.882 35.707V47.4204H112.79V17.3003ZM160.15 15.627L148.269 36.8226H143.176V17.3003C143.176 15.6239 142.941 14.2737 142.471 13.2495C142.001 12.2315 140.916 11.7225 139.216 11.7225H138.362V10.5978H143.176C144.16 10.5978 144.979 10.6832 145.634 10.8538C146.296 11.0184 146.825 11.3537 147.22 11.8597C147.616 12.3595 147.891 13.0453 148.046 13.917C148.194 14.7949 148.269 15.9226 148.269 17.3003V31.8025L160.15 10.5978H165.243V36.8226H160.15V15.627ZM184.035 37.3803L174.982 15.627C174.413 14.2127 173.591 13.152 172.515 12.4449C171.445 11.7377 170.193 11.308 168.758 11.1556V10.04H173.563C175.263 10.04 176.67 10.4332 177.783 11.2196C178.896 11.9999 179.753 13.0971 180.352 14.5114L186.808 29.9646L193.941 10.5978H196.77L185.732 40.4527C185.17 41.9767 184.576 43.2294 183.951 44.2109C183.327 45.1984 182.665 45.9726 181.966 46.5334C181.268 47.0881 180.504 47.4691 179.675 47.6764C178.847 47.8776 177.941 47.9781 176.958 47.9781H175.26V46.3048C176.095 46.3048 176.89 46.2225 177.644 46.0579C178.398 45.8872 179.085 45.5885 179.703 45.1618C180.328 44.7351 180.903 44.1407 181.428 43.3788C181.96 42.6168 182.452 41.6414 182.903 40.4527L184.035 37.3803ZM215.497 36.8226H214.366L204.747 15.9013V36.8226H202.484V10.5978H207.864L216.351 29.0137L224.838 10.5978H229.93V28.4559C229.93 29.4983 230.035 30.5194 230.245 31.5191C230.449 32.5249 230.731 33.418 231.089 34.1983C231.448 34.9785 231.89 35.6125 232.416 36.1002C232.948 36.5818 233.535 36.8226 234.178 36.8226V37.9381C232.403 37.9381 230.922 37.7156 229.735 37.2706C228.542 36.8256 227.58 36.1916 226.85 35.3687C226.115 34.5518 225.595 33.5582 225.292 32.3878C224.989 31.2173 224.838 29.9067 224.838 28.4559V16.4591L215.497 36.8226ZM256.356 35.4235C259.225 35.1309 261.318 33.9514 262.635 31.8849C263.959 29.8183 264.62 27.0934 264.62 23.7102C264.62 20.3269 263.959 17.602 262.635 15.5355C261.318 13.4751 259.225 12.2955 256.356 11.9968V35.4235ZM251.319 6.69336C251.319 5.02307 251.084 3.67586 250.614 2.65174C250.144 1.62763 249.059 1.11556 247.359 1.11556H246.514V0H251.319C252.302 0 253.125 0.0853421 253.786 0.256029C254.442 0.420619 254.968 0.755902 255.363 1.26187C255.765 1.76173 256.04 2.44753 256.189 3.31925C256.337 4.19706 256.411 5.32177 256.411 6.69336V10.04C258.675 10.1193 260.657 10.5216 262.357 11.247C264.058 11.9724 265.474 12.9478 266.605 14.1731C267.737 15.3984 268.584 16.8218 269.147 18.4433C269.716 20.0587 270 21.8144 270 23.7102C270 25.606 269.716 27.3647 269.147 28.9862C268.584 30.6016 267.737 32.0251 266.605 33.2564C265.474 34.4817 264.058 35.4571 262.357 36.1825C260.657 36.9079 258.675 37.3072 256.411 37.3803V47.4204H251.319V37.3803C249.056 37.3072 247.077 36.9079 245.383 36.1825C243.682 35.4571 242.266 34.4817 241.135 33.2564C240.003 32.0251 239.153 30.6016 238.584 28.9862C238.021 27.3647 237.74 25.606 237.74 23.7102C237.74 21.8144 238.021 20.0587 238.584 18.4433C239.153 16.8218 240.003 15.3984 241.135 14.1731C242.266 12.9478 243.682 11.9724 245.383 11.247C247.077 10.5216 249.056 10.1193 251.319 10.04V6.69336ZM251.375 11.9968C248.512 12.2955 246.419 13.4751 245.095 15.5355C243.778 17.602 243.12 20.3269 243.12 23.7102C243.12 27.0934 243.778 29.8183 245.095 31.8849C246.419 33.9514 248.512 35.1309 251.375 35.4235V11.9968Z" fill="#015092"/>
<path d="M85.52 66.4763L84.444 57.9816H82.5425L81.0584 62.9467C80.91 63.4405 80.808 64.0349 80.808 64.0349H80.7802C80.7802 64.0349 80.6781 63.4405 80.5297 62.9467L79.0364 57.9816H77.1256L76.059 66.4763H77.6172L78.2201 61.0631C78.2851 60.5419 78.3036 59.9201 78.3036 59.9201H78.3315C78.3315 59.9201 78.452 60.5236 78.619 61.0631L80.2608 66.4763H81.3274L82.9599 61.0631C83.1269 60.5236 83.2475 59.9201 83.2475 59.9201H83.266C83.266 59.9201 83.2938 60.5419 83.3495 61.0631L83.9617 66.4763H85.52ZM92.2076 62.8827C92.2076 61.1637 91.2244 60.0115 89.4435 60.0115C87.5791 60.0115 86.4753 61.374 86.4753 63.3125C86.4753 65.2601 87.5884 66.6134 89.7125 66.6134C90.64 66.6134 91.5397 66.4306 92.0777 66.1563L91.6139 64.9584C91.1594 65.1961 90.4731 65.3607 89.8238 65.3607C88.887 65.3607 88.2006 64.9035 88.0522 63.98L92.189 63.4222C92.2076 63.2394 92.2076 63.0656 92.2076 62.8827ZM90.64 62.6084L87.9501 62.965C87.9687 61.7855 88.5623 61.1728 89.4157 61.1728C90.1577 61.1728 90.64 61.6575 90.64 62.6084ZM101.984 66.4763L101.001 64.3732C100.704 63.7148 100.277 63.2394 99.6743 62.965L101.882 60.1487H100.12L98.1717 62.9559H98.1439V60.1487H96.6691V62.9559H96.6505L94.6934 60.1487H92.9311L95.1479 62.965C94.545 63.2394 94.0998 63.7148 93.803 64.3732L92.8383 66.4763H94.5264L95.352 64.5561C95.5931 63.9891 96.0383 63.4954 96.6691 63.4954V66.4763H98.1439V63.4954C98.7746 63.4954 99.2198 63.9891 99.461 64.5561L100.287 66.4763H101.984ZM109.395 65.4705L108.839 65.2327L108.291 60.1487H104.47L104.229 61.7489C104.015 63.1662 103.635 64.7389 102.42 65.4705L102.531 68.1862H103.644L103.709 66.4763H108.124L108.18 68.1862H109.302L109.395 65.4705ZM107.364 65.2784H104.377C105.203 64.4921 105.472 63.1205 105.638 62.0506L105.741 61.3466H106.983L107.364 65.2784ZM116.129 60.1487H114.422C114.237 61.9683 113.801 63.5502 113.226 65.059H113.207C112.549 63.532 112.066 61.9501 111.862 60.1487H110.146C110.36 62.3432 111.334 64.5286 112.428 66.4763L111.157 69H112.846L114.126 66.3848C115.016 64.5378 115.934 62.2884 116.129 60.1487ZM122.492 66.4763V60.1487H120.869V62.7456H118.81V60.1487H117.196V66.4763H118.81V63.8154H120.869V66.4763H122.492ZM128.938 66.1563V62.2609C128.938 60.6425 128.02 60.0115 126.378 60.0115C125.451 60.0115 124.533 60.2493 124.004 60.4687L124.403 61.5477C124.857 61.3648 125.599 61.1728 126.202 61.1728C126.944 61.1728 127.408 61.4197 127.408 62.0781V62.4073C125.46 62.5078 123.642 62.8462 123.642 64.5744C123.642 65.8637 124.607 66.6134 126.536 66.6134C127.501 66.6134 128.465 66.4031 128.938 66.1563ZM127.408 65.3516C127.241 65.4247 126.833 65.4796 126.49 65.4796C125.646 65.4796 125.163 65.1413 125.163 64.5378C125.163 63.5868 126.211 63.4862 127.408 63.4222V65.3516ZM135.923 63.2851C135.923 61.2277 134.791 60.0115 132.723 60.0115C131.758 60.0115 130.859 60.2218 130.376 60.4687V69H131.999V66.4031C132.203 66.4763 132.584 66.5494 132.927 66.5494C134.893 66.5494 135.923 65.2327 135.923 63.2851ZM134.3 63.2851C134.3 64.4829 133.771 65.3242 132.76 65.3242C132.472 65.3242 132.129 65.2693 131.999 65.2053V61.3831C132.139 61.31 132.454 61.2551 132.751 61.2551C133.752 61.2551 134.3 62.0049 134.3 63.2851ZM142.731 63.3125C142.731 61.4197 141.702 60.0115 139.828 60.0115C137.964 60.0115 136.925 61.4197 136.925 63.3125C136.925 65.1961 137.964 66.6134 139.828 66.6134C141.702 66.6134 142.731 65.1961 142.731 63.3125ZM141.117 63.2942C141.117 64.5652 140.691 65.315 139.828 65.315C138.975 65.315 138.548 64.5652 138.548 63.2942C138.548 62.0324 138.975 61.2643 139.828 61.2643C140.691 61.2643 141.117 62.0324 141.117 63.2942ZM150.523 65.4705L149.957 65.2327L149.409 60.1487H145.588L145.356 61.7489C145.143 63.1662 144.762 64.7389 143.547 65.4705L143.649 68.1862H144.772L144.827 66.4763H149.243L149.307 68.1862H150.421L150.523 65.4705ZM148.482 65.2784H145.495C146.33 64.4921 146.59 63.1205 146.757 62.0506L146.868 61.3466H148.102L148.482 65.2784ZM156.96 66.4763V60.1487H155.337V62.7456H153.277V60.1487H151.663V66.4763H153.277V63.8154H155.337V66.4763H156.96ZM163.991 63.3125C163.991 61.4197 162.961 60.0115 161.087 60.0115C159.223 60.0115 158.184 61.4197 158.184 63.3125C158.184 65.1961 159.223 66.6134 161.087 66.6134C162.961 66.6134 163.991 65.1961 163.991 63.3125ZM162.377 63.2942C162.377 64.5652 161.95 65.315 161.087 65.315C160.234 65.315 159.807 64.5652 159.807 63.2942C159.807 62.0324 160.234 61.2643 161.087 61.2643C161.95 61.2643 162.377 62.0324 162.377 63.2942ZM170.734 62.8827C170.734 61.1637 169.741 60.0115 167.97 60.0115C166.096 60.0115 164.992 61.374 164.992 63.3125C164.992 65.2601 166.115 66.6134 168.229 66.6134C169.157 66.6134 170.066 66.4306 170.595 66.1563L170.131 64.9584C169.686 65.1961 168.99 65.3607 168.35 65.3607C167.413 65.3607 166.718 64.9035 166.578 63.98L170.706 63.4222C170.734 63.2394 170.734 63.0656 170.734 62.8827ZM169.157 62.6084L166.467 62.965C166.495 61.7855 167.089 61.1728 167.933 61.1728C168.684 61.1728 169.157 61.6575 169.157 62.6084ZM180.51 63.3125C180.51 61.4929 179.62 60.0573 177.765 60.0573C177.301 60.0573 176.93 60.1487 176.596 60.295C177.004 59.1795 177.941 58.6582 179.833 58.4479V57.1221C175.91 57.5335 174.741 59.3898 174.741 62.6633C174.741 65.0681 175.715 66.6134 177.653 66.6134C179.49 66.6134 180.51 65.2236 180.51 63.3125ZM178.906 63.3125C178.906 64.4738 178.488 65.315 177.681 65.315C176.8 65.315 176.308 64.3641 176.308 62.7364C176.308 62.2427 176.336 61.8038 176.383 61.4197C176.726 61.2826 177.125 61.182 177.505 61.182C178.47 61.182 178.906 62.0689 178.906 63.3125ZM189.869 63.3125C189.869 61.4197 188.96 60.0115 187.142 60.0115C185.547 60.0115 184.656 61.118 184.462 62.6633H183.321V60.1487H181.725V66.4763H183.321V63.8703H184.462C184.628 65.4705 185.528 66.6134 187.142 66.6134C188.96 66.6134 189.869 65.1961 189.869 63.3125ZM188.311 63.2942C188.311 64.5652 187.931 65.3516 187.142 65.3516C186.354 65.3516 185.964 64.5652 185.964 63.2942C185.964 62.0324 186.354 61.246 187.142 61.246C187.931 61.246 188.311 62.0324 188.311 63.2942ZM196.649 63.2851C196.649 61.2277 195.527 60.0115 193.449 60.0115C192.485 60.0115 191.585 60.2218 191.103 60.4687V69H192.726V66.4031C192.93 66.4763 193.31 66.5494 193.654 66.5494C195.62 66.5494 196.649 65.2327 196.649 63.2851ZM195.026 63.2851C195.026 64.4829 194.498 65.3242 193.487 65.3242C193.199 65.3242 192.856 65.2693 192.726 65.2053V61.3831C192.865 61.31 193.18 61.2551 193.477 61.2551C194.479 61.2551 195.026 62.0049 195.026 63.2851ZM203.458 63.3125C203.458 61.4197 202.428 60.0115 200.554 60.0115C198.69 60.0115 197.651 61.4197 197.651 63.3125C197.651 65.1961 198.69 66.6134 200.554 66.6134C202.428 66.6134 203.458 65.1961 203.458 63.3125ZM201.844 63.2942C201.844 64.5652 201.417 65.315 200.554 65.315C199.701 65.315 199.274 64.5652 199.274 63.2942C199.274 62.0324 199.701 61.2643 200.554 61.2643C201.417 61.2643 201.844 62.0324 201.844 63.2942ZM212.956 66.4763V60.1487H207.641V66.4763H209.255V61.3923H211.342V66.4763H212.956ZM219.922 62.8827C219.922 61.1637 218.938 60.0115 217.158 60.0115C215.293 60.0115 214.189 61.374 214.189 63.3125C214.189 65.2601 215.302 66.6134 217.427 66.6134C218.354 66.6134 219.254 66.4306 219.792 66.1563L219.328 64.9584C218.874 65.1961 218.187 65.3607 217.538 65.3607C216.601 65.3607 215.915 64.9035 215.766 63.98L219.903 63.4222C219.922 63.2394 219.922 63.0656 219.922 62.8827ZM218.354 62.6084L215.664 62.965C215.683 61.7855 216.276 61.1728 217.13 61.1728C217.872 61.1728 218.354 61.6575 218.354 62.6084ZM226.693 63.2851C226.693 61.2277 225.561 60.0115 223.493 60.0115C222.528 60.0115 221.628 60.2218 221.146 60.4687V69H222.769V66.4031C222.973 66.4763 223.354 66.5494 223.697 66.5494C225.663 66.5494 226.693 65.2327 226.693 63.2851ZM225.06 63.2851C225.06 64.4829 224.541 65.3242 223.53 65.3242C223.242 65.3242 222.899 65.2693 222.769 65.2053V61.3831C222.908 61.31 223.224 61.2551 223.521 61.2551C224.513 61.2551 225.06 62.0049 225.06 63.2851ZM233.436 62.8827C233.436 61.1637 232.444 60.0115 230.672 60.0115C228.798 60.0115 227.695 61.374 227.695 63.3125C227.695 65.2601 228.817 66.6134 230.932 66.6134C231.859 66.6134 232.768 66.4306 233.297 66.1563L232.833 64.9584C232.388 65.1961 231.692 65.3607 231.052 65.3607C230.115 65.3607 229.42 64.9035 229.281 63.98L233.408 63.4222C233.436 63.2394 233.436 63.0656 233.436 62.8827ZM231.859 62.6084L229.169 62.965C229.197 61.7855 229.791 61.1728 230.635 61.1728C231.386 61.1728 231.859 61.6575 231.859 62.6084ZM239.975 64.7755C239.975 63.8246 239.196 63.3674 238.547 63.2119V63.2028C239.205 63.0656 239.808 62.4896 239.808 61.7672C239.808 60.6699 238.825 60.0115 237.016 60.0115C236.145 60.0115 235.273 60.1761 234.66 60.4687V66.1563C235.273 66.4489 236.145 66.6134 237.026 66.6134C238.964 66.6134 239.975 66.0282 239.975 64.7755ZM238.25 61.886C238.25 62.1969 238.129 62.4713 237.944 62.6176C237.749 62.7547 237.517 62.8187 237.091 62.8187H236.209V61.1271C236.386 61.0539 236.72 60.9991 237.016 60.9991C237.87 60.9991 238.25 61.3374 238.25 61.886ZM238.371 64.6841C238.371 65.3242 237.944 65.6351 237.026 65.6351C236.738 65.6351 236.395 65.5802 236.209 65.4979V63.7331H237.109C237.564 63.7331 237.749 63.788 237.962 63.916C238.213 64.0714 238.371 64.3366 238.371 64.6841ZM246.765 63.3125C246.765 61.4197 245.726 60.0115 243.862 60.0115C241.988 60.0115 240.958 61.4197 240.958 63.3125C240.958 65.1961 241.988 66.6134 243.862 66.6134C245.726 66.6134 246.765 65.1961 246.765 63.3125ZM245.142 63.2942C245.142 64.5652 244.715 65.315 243.862 65.315C242.999 65.315 242.572 64.5652 242.572 63.2942C242.572 62.0324 242.999 61.2643 243.862 61.2643C244.715 61.2643 245.142 62.0324 245.142 63.2942ZM254.547 65.4705L253.991 65.2327L253.443 60.1487H249.622L249.381 61.7489C249.167 63.1662 248.787 64.7389 247.572 65.4705L247.683 68.1862H248.796L248.861 66.4763H253.276L253.332 68.1862H254.454L254.547 65.4705ZM252.516 65.2784H249.529C250.355 64.4921 250.624 63.1205 250.79 62.0506L250.893 61.3466H252.135L252.516 65.2784ZM261.272 63.3125C261.272 61.4197 260.233 60.0115 258.369 60.0115C256.495 60.0115 255.465 61.4197 255.465 63.3125C255.465 65.1961 256.495 66.6134 258.369 66.6134C260.233 66.6134 261.272 65.1961 261.272 63.3125ZM259.658 63.2942C259.658 64.5652 259.222 65.315 258.369 65.315C257.515 65.315 257.079 64.5652 257.079 63.2942C257.079 62.0324 257.515 61.2643 258.369 61.2643C259.222 61.2643 259.658 62.0324 259.658 63.2942ZM267.82 64.7755C267.82 63.8246 267.032 63.3674 266.392 63.2119V63.2028C267.041 63.0656 267.653 62.4896 267.653 61.7672C267.653 60.6699 266.661 60.0115 264.852 60.0115C263.99 60.0115 263.118 60.1761 262.496 60.4687V66.1563C263.118 66.4489 263.99 66.6134 264.871 66.6134C266.809 66.6134 267.82 66.0282 267.82 64.7755ZM266.095 61.886C266.095 62.1969 265.974 62.4713 265.78 62.6176C265.594 62.7547 265.353 62.8187 264.926 62.8187H264.045V61.1271C264.221 61.0539 264.555 60.9991 264.852 60.9991C265.715 60.9991 266.095 61.3374 266.095 61.886ZM266.216 64.6841C266.216 65.3242 265.78 65.6351 264.871 65.6351C264.583 65.6351 264.24 65.5802 264.045 65.4979V63.7331H264.954C265.399 63.7331 265.594 63.788 265.807 63.916C266.058 64.0714 266.216 64.3366 266.216 64.6841Z" fill="#015092"/>
<path d="M11.1899 27.0736C11.1899 27.192 11.1899 27.3023 11.1899 27.4214C11.4627 27.6107 12.1035 27.5481 11.9916 27.0736C11.839 26.9463 11.3342 26.9463 11.1899 27.0736Z" fill="#015092"/>
<path d="M53.2568 44.6632C53.2651 44.4106 53.3852 44.2922 53.3286 43.9838C53.7941 43.6522 53.7533 43.2567 53.9377 42.5691C54.2112 41.5582 55.4452 39.8352 54.3949 39.0612C54.0095 39.409 54.283 39.6854 54.0903 40.0333C53.7782 40.6106 52.9205 40.6814 52.5759 41.1552C52.1989 41.6767 52.0787 42.625 52.3515 43.0988C51.7983 43.7074 51.462 44.6468 51.9661 45.5557C52.6643 45.5244 52.8722 45.0029 53.2568 44.6632Z" fill="#015092"/>
<path d="M60.1024 23.5649C58.523 19.4878 56.0943 15.8232 53.0165 12.8006C47.4609 7.34355 39.8226 3.94925 31.3743 3.86688C31.27 3.86688 31.174 3.86279 31.0774 3.86279C25.49 3.86279 20.2556 5.3244 15.7269 7.86094C9.13751 11.5629 4.05567 17.5666 1.61108 24.7657C0.57731 27.7999 0.00828674 31.0479 0 34.4224C0 34.4537 0 34.4694 0 34.5007C0 36.3102 0.168497 38.089 0.473035 39.8189C0.897731 42.2131 1.60348 44.5046 2.55784 46.6776C7.302 57.4487 18.1321 65.0032 30.7721 65.1298C30.8764 65.1298 30.9724 65.1373 31.0767 65.1373C36.6474 65.1373 41.866 63.6831 46.3871 61.1548C55.7974 55.8925 62.1457 45.9274 62.1457 34.5007C62.1464 30.6448 61.4165 26.9626 60.1024 23.5649ZM40.576 58.8865C40.1113 58.8313 39.967 58.5944 39.5581 58.8157C39.5733 58.4208 38.86 58.7449 38.8282 58.3813C37.6736 58.5318 36.5922 58.6502 35.7179 59.1002C35.3975 59.2663 35.1648 59.606 34.8437 59.6775C34.6282 59.717 34.323 59.5754 34.1144 59.6067C33.4729 59.6857 32.4067 60.555 31.654 60.6816C31.3094 60.7286 30.9565 60.634 30.5553 60.6816C30.4676 60.7211 30.3633 60.7524 30.2666 60.7919C27.9505 60.7211 25.7138 60.3651 23.5896 59.749C23.6455 59.6619 23.7097 59.5754 23.6697 59.3855C22.5234 58.7061 21.714 57.6951 20.6236 56.9517C20.6001 56.4064 21.0649 56.3431 21.4979 56.241C21.2092 55.5609 19.6941 55.8536 19.7584 56.8094C19.7735 57.1342 20.0063 57.1097 20.0463 57.529C19.7176 57.3786 19.67 56.9442 19.2453 56.8891C19.4455 56.755 19.4131 56.3989 19.1009 56.3833C18.7646 56.32 18.9649 56.7788 18.8123 56.8891C18.4518 56.8891 18.4594 56.8101 18.1632 56.8891C18.1956 57.3316 18.7881 57.482 19.1009 57.2445C19.2536 57.497 19.2536 57.6318 19.1009 57.8925C19.3737 58.2874 20.0463 58.2479 20.4793 58.1689C20.6236 58.1921 20.4641 57.9715 20.4075 57.9559C20.5601 57.7666 20.7286 58.1614 20.768 58.3194C20.5518 58.414 20.3267 58.4617 20.1112 58.4848C19.3488 58.1451 18.612 57.7734 17.8904 57.3704C17.8103 57.1968 17.6176 57.126 17.4015 57.0858C17.2489 57.0069 17.1045 56.9122 16.9602 56.8251C16.9602 56.8251 16.9602 56.8251 16.9602 56.8169C16.9519 56.8169 16.9519 56.8169 16.9367 56.8088C14.9886 55.6079 13.2167 54.1694 11.6463 52.5261C11.598 52.4308 11.5255 52.3525 11.4378 52.313C7.06099 47.6273 4.39197 41.369 4.39197 34.5014C4.39197 31.8859 4.77662 29.3657 5.49825 26.9789C5.60184 27.2791 5.58664 27.6985 5.83456 27.8557C6.27583 27.595 5.77862 26.8605 5.70611 26.3465C5.70611 26.3308 5.7144 26.307 5.72199 26.2913C5.8898 26.7495 6.28273 27.16 6.41118 27.642C6.48299 27.9184 6.3145 28.109 6.33936 28.3534C6.42775 29.2071 7.10105 29.3024 7.86205 29.8626C8.22252 29.9498 8.16658 29.6421 8.43936 29.6502C8.64791 30.606 10.0663 30.3848 10.1147 31.4992C10.259 31.7361 10.596 31.7838 10.6119 32.1466C10.9972 32.0758 10.9565 32.423 11.4136 32.4394C11.5496 32.3291 11.4295 31.973 11.7023 32.0043C12.071 32.3127 12.0945 32.9608 12.0627 33.6484C11.7976 34.304 10.8998 35.2448 11.5579 35.9399C10.9972 36.509 11.5897 37.4328 12.0627 37.6547C12.3431 38.6976 12.7602 39.5908 13.3693 40.294C13.979 40.4207 14.2187 40.8945 14.5322 41.2982C14.5405 42.8156 14.7407 44.1268 14.8927 45.4468C14.9886 46.1663 14.7242 46.8845 14.7566 47.5885C14.7967 48.5606 15.5259 49.1923 15.4051 50.236C15.2849 50.2441 15.1247 50.204 15.1164 50.3068C14.9962 50.7418 15.3968 50.6465 15.4769 50.8841C15.7897 51.9032 16.0065 53.0257 17.0002 53.3811C17.2247 53.4124 17.0562 53.0489 17.2247 53.0332C17.2965 52.8433 17.2482 53.6418 17.0085 53.6024C17.3207 54.0523 18.2902 54.3049 18.8924 54.0993C18.2509 53.6412 17.6577 53.1272 17.2965 52.3845C17.5057 52.0686 17.6894 51.7207 17.8738 51.3885C17.8338 51.0406 17.465 51.0331 17.2965 50.8119C17.2323 50.5117 17.6176 50.654 17.7295 50.5273C17.6176 50.4245 17.6653 50.1638 17.6577 49.95C17.7461 49.8547 18.0105 49.9262 18.0181 49.737C18.0506 49.3816 17.4408 49.6417 17.5133 49.2393C17.6984 49.3026 17.8987 49.3346 18.1625 49.3101C18.2826 49.0657 18.1625 48.8363 18.1625 48.5994C19.237 48.9622 19.8461 48.1644 19.3254 47.3822C19.5339 47.3904 19.7984 47.3427 19.9103 47.453C20.7597 46.9628 21.0407 45.9042 21.6505 45.1615C21.674 44.83 21.5145 44.6714 21.5787 44.3078C21.8514 43.866 22.4364 43.7312 22.8044 43.3759C23.1338 43.3439 23.4225 43.478 23.6787 43.3759C24.3437 43.1145 24.6165 41.0926 24.4804 39.9462C24.7532 39.7331 26.1474 38.3185 25.8505 37.5124C25.5301 36.6274 23.5585 35.7186 22.2278 35.8691C21.8908 35.1025 21.009 35.2046 20.3433 34.8649C20.0953 33.5851 19.5574 32.5891 17.8745 32.7232C17.5458 32.0118 16.5203 31.7273 16.4236 31.0084C15.9582 30.9532 15.6378 31.0404 15.4858 31.2929C15.2131 31.1187 15.077 31.1976 14.6848 31.2221C14.5557 30.9614 14.2753 30.8668 14.18 30.5822C13.8437 30.5822 13.8755 30.8198 13.7387 30.5033C13.1379 30.7722 12.5365 31.0329 12.3604 31.7198C12.0952 31.5857 11.511 31.4039 11.0614 31.7198C10.2838 31.0962 11.542 28.9388 9.68306 29.4998C9.8191 28.9068 10.0753 28.4167 10.1872 27.7924C10.0995 27.7291 10.0111 27.6978 9.93926 27.6658C10.1478 27.4051 10.4924 27.2866 11.0138 27.3343C11.0138 26.3465 9.93166 26.3301 9.1458 26.5521C9.01736 26.3227 8.71282 26.0544 8.35234 25.8175C8.52913 25.533 8.76944 25.3199 9.09815 25.2164C9.45103 25.1851 9.45862 25.4853 9.75557 25.501C9.94754 25.4302 9.99588 25.2082 9.97102 24.9244C10.5249 24.8134 10.5891 25.051 11.0614 24.9244C11.1256 25.5248 11.2534 26.0776 11.4944 26.4969C12.312 25.7855 11.3818 24.5533 11.9274 23.7153C12.3279 23.1067 13.0813 23.1067 13.3057 22.3565C13.3465 22.1189 13.2581 22.0243 13.2339 21.8589C13.6669 21.59 13.7947 21.0215 14.0357 20.5627C14.5004 20.4054 14.6282 19.9153 15.1171 19.7812C15.2138 19.4966 14.8851 19.6389 14.9728 19.3543C15.1813 18.8955 15.8152 18.8403 16.1357 18.5006C16.2323 18.6109 16.0714 18.9193 16.28 19.0698C16.7447 18.7457 17.3621 18.564 17.8027 18.2079C17.8669 17.892 17.6742 17.8131 17.4422 17.7811C17.4505 17.5755 17.7467 17.6545 17.7309 17.4264C17.6832 17.1731 17.1777 17.3474 17.0099 17.2133C17.0659 16.5788 17.6832 16.9288 18.0913 16.6442C18.1632 16.2868 17.6349 16.5196 17.514 16.3535C17.9629 16.1084 18.757 16.1956 18.8213 15.5631C19.4704 15.4685 19.8074 15.0621 19.9752 14.493C19.9434 14.1254 19.4145 14.2479 19.4711 13.7775C19.2059 13.8013 18.9974 13.7652 18.822 13.7101C18.6535 13.015 18.4691 12.339 18.2364 11.7032C18.0278 11.7311 17.9001 11.8332 17.7951 11.9639C17.7799 11.9558 17.7716 11.9442 17.755 11.9401C17.6832 12.0354 17.514 12.0041 17.378 11.921C18.949 10.9966 20.6243 10.2259 22.388 9.62957C22.4681 9.73169 22.5565 9.83108 22.7326 9.84674C22.5966 10.1429 22.5883 10.2654 22.8044 10.486C23.1014 10.5418 23.2215 10.4186 23.4618 10.4186C23.6062 10.5139 23.6462 10.7154 23.8223 10.7739C24.3754 10.4383 25.1364 9.94817 24.912 9.27285C25.0888 9.18571 25.1855 9.01211 25.2649 8.82218C27.1412 8.411 29.0802 8.19383 31.0767 8.19383C34.0827 8.19383 36.9678 8.69147 39.6693 9.59689C39.4283 10.2845 39.717 11.454 40.3585 11.5609C40.8557 11.644 40.9759 11.2566 41.5214 11.1341C41.6333 11.6358 41.9544 11.9435 42.2424 12.2764C42.2582 12.6283 41.7058 12.4146 41.8101 12.8489C41.9544 13.288 42.9474 13.2996 43.2609 13.1335C43.3493 12.5051 43.3169 11.7624 43.8465 11.5609C43.8548 11.4976 43.8548 11.4425 43.8465 11.3989C44.3513 11.6712 44.8402 11.9598 45.3216 12.2641C45.4017 12.497 45.6503 12.6508 45.6579 12.9946C45.3133 13.0143 45.4334 12.5875 45.0723 12.6352C44.5992 12.7815 44.7277 13.5283 44.495 13.9238C43.6214 13.6073 42.8362 14.2915 42.1063 13.6352C42.3307 13.1532 41.7859 13.1811 41.5939 12.9197C41.7859 12.4064 41.8101 12.1688 41.5939 11.6358C40.6237 11.6868 40.7521 12.7182 41.0891 13.3506C40.768 13.3786 40.2397 13.3588 39.8544 13.497C39.6065 13.7775 39.5657 14.2636 38.9808 14.2125C38.7564 14.0151 39.2287 13.8571 38.9808 13.6352C38.8766 13.497 38.6121 13.529 38.476 13.4221C38.4601 12.932 38.1791 12.7107 37.8186 12.561C37.8746 12.2955 37.9153 12.0551 37.53 12.0633C37.4823 11.759 37.7627 11.7747 37.7461 11.4901C37.6985 11.3083 37.5141 11.2416 37.2413 11.277C37.1771 11.0755 37.3456 11.0919 37.3131 10.9217C37.193 10.7991 36.8884 10.8624 36.6564 10.8468C36.3118 11.0565 36.3677 11.6535 36.0791 11.9217C36.0466 12.147 36.432 11.9449 36.3677 12.2063C36.4154 12.4908 36.0232 12.2968 36.0073 12.2063C35.5342 12.3914 35.4141 12.787 34.8444 12.7073C34.9093 12.9803 34.941 13.2846 34.9162 13.6359C35.1013 13.8176 35.4293 13.849 35.5653 14.0668C35.9983 13.9797 36.3111 13.802 36.5114 13.4895C36.5114 13.2764 36.5114 13.0627 36.5114 12.8496C36.6875 12.7863 36.8318 12.6801 37.097 12.7073C37.0252 12.9878 37.3124 12.9204 37.2406 13.2016C37.0645 13.1975 36.8877 13.1934 36.8083 13.2764C36.7517 13.5453 36.9285 13.5807 36.8801 13.8496C36.6951 13.8374 36.5273 13.8374 36.4472 13.9245C36.4624 14.1097 36.615 14.1771 36.8801 14.1376C36.8477 14.4344 36.5349 14.4651 36.4472 14.7067C36.952 14.8762 37.8096 14.77 38.2585 14.6359C38.1142 14.9913 38.4912 14.8252 38.4746 15.0628C37.7613 14.7033 37.7371 15.3507 36.8795 15.2085C36.7752 15.2997 36.8076 15.5168 36.8076 15.7102C37.4485 16.0383 38.3945 16.4134 37.9616 17.5619C36.9437 17.7273 35.8056 17.0091 35.2124 17.6402C35.6371 18.5095 35.1164 19.3713 35.2843 20.2162C35.7172 20.3271 36.3422 20.2563 36.5832 20.564C36.3671 20.7622 36.1502 20.9514 36.1502 21.3544C35.084 21.592 35.2283 23.0298 34.555 23.6459C33.2478 24.1279 32.9032 25.5507 32.1581 26.5698C32.783 27.194 32.4868 28.593 32.0863 29.2248C32.1981 29.4692 32.3901 29.636 32.3024 30.0778C32.5179 30.4182 32.8949 30.5917 33.2478 30.7973C33.7526 31.9274 34.3223 33.3734 35.5639 33.5075C36.1095 33.5708 36.3898 33.1045 36.8712 33.0806C37.3359 33.065 37.472 33.4047 37.9609 33.436C38.7067 33.2386 39.3876 32.5986 40.141 32.7246C40.7659 32.8349 41.1989 33.9098 41.953 33.3645C42.2175 33.8622 42.1125 34.8656 41.8729 35.2924C42.1533 36.2169 42.859 36.7152 43.0351 37.7262C44.4059 38.682 42.8349 40.113 42.9633 41.3771C43.0275 42.0089 43.6048 42.4834 43.6932 43.1628C43.8534 44.4903 44.2622 45.4624 44.9273 46.4495C44.9355 46.6558 44.6793 46.5918 44.7829 46.8764C45.0633 47.9908 46.258 46.8212 46.9554 47.0895C47.6529 46.6551 48.4622 46.3386 48.695 45.4461C49.6252 45.0982 49.6728 43.881 50.1458 43.0831C50.2667 43.0831 50.3868 43.0831 50.5063 43.0831C50.7708 42.7033 50.795 41.8979 50.5063 41.5181C50.8357 40.8387 51.4607 40.452 52.0297 40.017C52.0615 39.1163 52.4143 38.5629 52.174 37.8678C52.0615 37.5363 51.6368 37.3701 51.5967 37.0774C51.4199 35.948 52.9274 35.6553 53.0476 34.4381C53.2395 34.3911 53.3203 34.2325 53.4806 34.1535C53.7133 32.8975 54.611 31.9261 54.4991 30.5741C53.9536 30.8348 53.2803 30.8988 52.7589 31.0091C52.5669 30.7796 52.8874 30.606 52.9751 30.4318C52.3826 29.5386 51.172 28.5671 51.3799 27.3581C50.8992 26.7338 50.3613 25.7849 50.2895 25.0026C50.7383 24.908 50.8827 25.6909 51.0194 26.1409C51.0836 26.4336 51.404 26.4806 51.5242 26.7182C51.5884 28.0375 52.6139 28.4017 52.6781 29.721C52.9668 29.9416 52.9267 30.4794 53.3355 30.5741C53.6242 30.6217 53.5441 30.3051 53.5517 30.0764C54.3293 29.5549 55.2753 29.2078 55.9403 28.5753C55.9403 28.0464 56.2766 27.9905 56.2373 27.5712C56.1896 27.113 55.5799 26.9469 55.5799 26.4336C55.9569 26.4649 56.2131 26.6154 56.5577 26.6862C57.3436 29.1601 57.76 31.7831 57.76 34.5007C57.76 45.1139 51.3716 54.2641 42.185 58.4126C41.4896 58.3813 40.9123 58.4446 40.576 58.8865ZM16.5686 16.7055C16.3684 16.6422 16.6329 16.4543 16.6329 16.3481C16.9132 16.3841 16.9933 16.218 17.2903 16.2773C17.2495 16.6183 16.7606 16.5183 16.5686 16.7055ZM16.9298 17.5591C17.0976 17.5823 17.2268 17.6456 17.3628 17.7089C17.2979 17.8594 16.8331 17.8042 16.9298 17.5591ZM13.2256 16.3481C12.9777 15.9682 13.1379 15.4828 13.2256 15.06C13.2339 15.0124 13.2098 14.9961 13.178 14.9892C13.6345 14.5815 14.1082 14.1989 14.5888 13.819C14.5004 14.495 13.9714 14.7401 13.5868 15.1315C13.7712 15.5223 13.8029 16.3161 13.2256 16.3481ZM12.6483 19.0684C12.3362 18.792 12.2637 19.2189 12.216 19.4238C12.1442 19.2107 12.0393 19.0208 11.9916 18.7757C12.216 18.8785 12.2561 18.7444 12.5765 18.7757C12.5689 18.9105 12.6649 18.9261 12.6483 19.0684ZM11.0538 18.4203C11.1581 18.2862 11.3584 18.2467 11.4143 18.065C11.647 18.1283 11.7913 18.2624 11.7748 18.5626C11.5262 18.5075 11.502 18.6736 11.27 18.6334C11.3501 18.4121 11.3425 18.404 11.0538 18.4203ZM10.837 18.713C10.7085 18.6579 10.8287 18.5789 10.837 18.4918C10.9654 18.5463 10.8453 18.6177 10.837 18.713ZM9.1458 26.6304C9.12992 26.7965 9.25007 26.8278 9.23419 26.9857C8.98559 26.9701 8.75356 26.9776 8.79292 27.2465C8.95313 27.6651 9.37852 27.4677 9.69065 27.6338C9.12992 27.7046 9.21762 28.977 8.29572 28.7952C8.2239 28.5821 8.15968 28.3445 8.11962 28.1076C8.19973 28.092 8.304 28.0756 8.44005 28.0368C8.35994 27.5943 8.18385 27.484 8.03123 27.5229C8.01535 27.3173 8.02295 27.1042 8.03952 26.8986C8.52084 26.9231 8.78533 26.7257 9.1458 26.6304ZM13.6669 31.1425C13.6586 30.9689 13.7788 30.9294 13.8112 30.7871C14.0757 30.8423 13.8996 31.1745 13.6669 31.1425ZM55.3651 25.8563C55.1331 26.2042 55.0447 26.678 54.4197 26.6467C54.2595 26.4493 54.2112 26.1327 54.2036 25.7849C54.0675 25.6507 53.9384 25.7617 53.7706 25.7849C53.6504 25.3267 53.3535 25.0503 53.3293 24.4968C54.1152 24.7099 53.9467 25.84 54.716 26.0694C55.0281 26.0932 55.0847 25.8638 55.3651 25.8563ZM53.4011 20.0875C53.4011 20.1032 53.4011 20.1195 53.4094 20.1352C53.4654 20.2135 53.5296 20.2924 53.5862 20.3721C53.618 20.419 53.6422 20.4674 53.6656 20.5062C53.8424 20.7751 53.9784 21.0753 53.9867 21.494C52.8881 21.541 52.4634 20.7036 52.8321 19.7083C52.3674 19.2495 51.9344 18.5619 51.7507 17.875C52.3349 18.5783 52.8881 19.321 53.4011 20.0875ZM45.6496 23.3511C44.5033 22.9563 43.8541 22.0713 42.7478 21.6363C42.9163 21.0515 42.4115 20.9487 42.6035 20.5613C42.3874 20.4824 42.1788 20.4116 42.0186 20.2768C41.8025 20.3006 41.6975 20.4347 41.5138 20.498C40.6078 20.3877 39.8061 20.3088 38.9725 20.498C38.195 20.6641 37.4091 21.2802 36.6564 20.6403C37.5935 20.5852 38.2592 20.3476 38.7564 19.8506C38.5962 18.6416 39.6783 18.6572 39.8461 17.7722C40.536 18.0248 41.0649 17.843 41.5863 17.5591C42.1719 18.4598 43.4943 18.6334 43.7588 19.8506C43.3818 19.9139 43.0538 20.0324 42.6767 19.7798C42.5407 20.1985 43.0137 20.5777 43.254 20.8541C43.4785 20.9092 43.5185 20.7751 43.687 20.7833C43.7195 20.5307 43.6628 20.3802 43.6152 20.206C43.8313 20.206 43.984 20.419 44.1283 20.2849C44.1683 20.0644 44.3285 19.9534 44.5613 19.9221C44.6089 19.6607 44.401 19.6457 44.4169 19.4244C44.6572 19.4244 44.7698 19.7641 44.9935 19.5667C45.0177 18.9268 44.3044 19.0058 44.2008 18.4918C44.6338 18.3652 44.7698 18.5469 45.0661 18.713C45.2428 19.8901 45.6841 20.8153 46.6619 21.2101C46.7821 21.2652 46.7821 20.8786 46.6619 20.9255C46.7338 20.7043 46.8622 21.0045 46.9506 20.9963C47.1267 21.0202 46.9099 20.6723 47.1743 20.7833C46.99 20.2141 46.8781 20.0085 46.8781 19.2822C47.4471 19.2822 47.3988 20.1508 47.3905 20.4987C47.7275 20.9575 48.2247 21.6049 49.0582 21.3524C49.3144 21.3367 49.2902 21.5968 49.4912 21.6369C49.8033 21.6369 49.9559 21.4708 50.2922 21.4947C50.2121 22.1741 50.2764 22.7112 50.1479 23.4226C48.7288 23.3123 47.3428 23.2013 46.597 22.285C46.3809 22.4974 45.7635 22.3245 45.5785 22.5614C45.5218 22.9093 45.6903 23.0271 45.6496 23.3511ZM38.7564 14.4875C38.9808 14.3847 38.86 14.9021 38.6846 14.8429C38.6521 14.6727 38.8123 14.6884 38.7564 14.4875ZM48.1107 19.0684C47.9747 18.8941 47.8628 18.6967 47.6778 18.5626C47.9105 18.1991 48.0631 17.7566 48.3269 17.4169C48.6715 17.393 48.6556 17.7089 49.0568 17.6299C48.9684 17.8423 49.0326 17.8743 49.121 18.0643C49.4415 17.907 49.7702 18.0724 50.0747 18.1351C50.1313 17.8587 49.9152 17.8587 49.7785 17.7722C49.8903 17.6299 50.2909 17.7566 50.4352 17.6299C50.4117 17.7954 50.4511 17.9063 50.5795 17.922C50.5878 18.0724 50.3233 17.954 50.219 17.9853C50.2674 18.1358 50.3551 18.2385 50.4518 18.3407C50.3475 18.3488 50.2432 18.3645 50.1472 18.4115C50.1072 18.9254 50.4041 19.0916 50.6845 19.2808C50.8606 19.1385 51.1734 19.1304 51.3495 18.9806C51.5346 19.1229 51.6789 19.2971 51.7348 19.5654C50.4352 19.5974 49.6901 18.6334 48.1107 19.0684Z" fill="#015092"/>
</g>
<defs>
<clipPath id="clip0">
<rect width="270" height="69" fill="white"/>
</clipPath>
</defs>
</svg>
